<mxfile host="app.diagrams.net" modified="2020-11-27T12:29:29.389Z" agent="5.0 (Macintosh; Intel Mac OS X 10_14_6) AppleWebKit/537.36 (KHTML, like Gecko) Chrome/86.0.4240.198 Safari/537.36" etag="qV7ie0c6dZZsP5PgHOui" version="13.10.0" type="github">
  <diagram id="jB71W1O7zrustL_W9yD_" name="Page-1">
    <mxGraphModel dx="1186" dy="686" grid="0" gridSize="10" guides="1" tooltips="1" connect="1" arrows="1" fold="1" page="1" pageScale="1" pageWidth="2336" pageHeight="1654" math="0" shadow="0">
      <root>
        <mxCell id="0" />
        <mxCell id="1" parent="0" />
        <mxCell id="6fVhJkfkEPWEI2CCEgqG-36" style="edgeStyle=none;rounded=0;orthogonalLoop=1;jettySize=auto;html=1;exitX=1;exitY=0.5;exitDx=0;exitDy=0;" edge="1" parent="1" source="6fVhJkfkEPWEI2CCEgqG-2" target="6fVhJkfkEPWEI2CCEgqG-5">
          <mxGeometry relative="1" as="geometry" />
        </mxCell>
        <mxCell id="6fVhJkfkEPWEI2CCEgqG-48" value="上下柜" style="edgeLabel;html=1;align=center;verticalAlign=middle;resizable=0;points=[];" vertex="1" connectable="0" parent="6fVhJkfkEPWEI2CCEgqG-36">
          <mxGeometry x="-0.3478" y="4" relative="1" as="geometry">
            <mxPoint as="offset" />
          </mxGeometry>
        </mxCell>
        <mxCell id="6fVhJkfkEPWEI2CCEgqG-2" value="&lt;span style=&quot;color: rgb(23 , 43 , 77) ; font-family: , , &amp;#34;segoe ui&amp;#34; , &amp;#34;roboto&amp;#34; , &amp;#34;oxygen&amp;#34; , &amp;#34;ubuntu&amp;#34; , &amp;#34;fira sans&amp;#34; , &amp;#34;droid sans&amp;#34; , &amp;#34;helvetica neue&amp;#34; , sans-serif ; font-size: 14px ; text-align: left ; background-color: rgb(255 , 255 , 255)&quot;&gt;商品上下柜MQ&lt;/span&gt;" style="rounded=1;whiteSpace=wrap;html=1;" vertex="1" parent="1">
          <mxGeometry x="503" y="215" width="120" height="60" as="geometry" />
        </mxCell>
        <mxCell id="6fVhJkfkEPWEI2CCEgqG-3" value="商品业务" style="text;html=1;strokeColor=none;fillColor=none;align=center;verticalAlign=middle;whiteSpace=wrap;rounded=0;" vertex="1" parent="1">
          <mxGeometry x="503" y="78" width="75" height="24" as="geometry" />
        </mxCell>
        <mxCell id="6fVhJkfkEPWEI2CCEgqG-4" value="精选业务" style="text;html=1;strokeColor=none;fillColor=none;align=center;verticalAlign=middle;whiteSpace=wrap;rounded=0;" vertex="1" parent="1">
          <mxGeometry x="944" y="78" width="75" height="24" as="geometry" />
        </mxCell>
        <mxCell id="6fVhJkfkEPWEI2CCEgqG-40" style="edgeStyle=none;rounded=0;orthogonalLoop=1;jettySize=auto;html=1;exitX=0;exitY=0.75;exitDx=0;exitDy=0;" edge="1" parent="1" source="6fVhJkfkEPWEI2CCEgqG-5">
          <mxGeometry relative="1" as="geometry">
            <mxPoint x="616" y="464" as="targetPoint" />
          </mxGeometry>
        </mxCell>
        <mxCell id="6fVhJkfkEPWEI2CCEgqG-55" value="精选状态变化" style="edgeLabel;html=1;align=center;verticalAlign=middle;resizable=0;points=[];" vertex="1" connectable="0" parent="6fVhJkfkEPWEI2CCEgqG-40">
          <mxGeometry x="-0.9013" relative="1" as="geometry">
            <mxPoint as="offset" />
          </mxGeometry>
        </mxCell>
        <mxCell id="6fVhJkfkEPWEI2CCEgqG-5" value="" style="rounded=1;whiteSpace=wrap;html=1;" vertex="1" parent="1">
          <mxGeometry x="920" y="151" width="120" height="416" as="geometry" />
        </mxCell>
        <mxCell id="6fVhJkfkEPWEI2CCEgqG-8" value="&lt;span style=&quot;color: rgb(23 , 43 , 77) ; font-family: , , &amp;#34;segoe ui&amp;#34; , &amp;#34;roboto&amp;#34; , &amp;#34;oxygen&amp;#34; , &amp;#34;ubuntu&amp;#34; , &amp;#34;fira sans&amp;#34; , &amp;#34;droid sans&amp;#34; , &amp;#34;helvetica neue&amp;#34; , sans-serif ; font-size: 14px ; text-align: left ; background-color: rgb(255 , 255 , 255)&quot;&gt;类目变化MQ&lt;/span&gt;" style="rounded=1;whiteSpace=wrap;html=1;" vertex="1" parent="1">
          <mxGeometry x="503" y="125" width="125" height="60" as="geometry" />
        </mxCell>
        <mxCell id="6fVhJkfkEPWEI2CCEgqG-9" value="&lt;span style=&quot;color: rgb(23 , 43 , 77) ; font-family: , , &amp;#34;segoe ui&amp;#34; , &amp;#34;roboto&amp;#34; , &amp;#34;oxygen&amp;#34; , &amp;#34;ubuntu&amp;#34; , &amp;#34;fira sans&amp;#34; , &amp;#34;droid sans&amp;#34; , &amp;#34;helvetica neue&amp;#34; , sans-serif ; font-size: 14px ; text-align: left ; background-color: rgb(255 , 255 , 255)&quot;&gt;同步任务worker&lt;/span&gt;" style="rounded=1;whiteSpace=wrap;html=1;" vertex="1" parent="1">
          <mxGeometry x="503" y="287" width="120" height="60" as="geometry" />
        </mxCell>
        <mxCell id="6fVhJkfkEPWEI2CCEgqG-10" value="&lt;div style=&quot;text-align: left&quot;&gt;&lt;font color=&quot;#172b4d&quot;&gt;&lt;span style=&quot;font-size: 14px ; background-color: rgb(255 , 255 , 255)&quot;&gt;定时上下线worker&lt;/span&gt;&lt;/font&gt;&lt;/div&gt;" style="rounded=1;whiteSpace=wrap;html=1;" vertex="1" parent="1">
          <mxGeometry x="500.5" y="355" width="120" height="60" as="geometry" />
        </mxCell>
        <mxCell id="6fVhJkfkEPWEI2CCEgqG-16" value="精选解耦 改造" style="text;html=1;align=center;verticalAlign=middle;resizable=0;points=[];autosize=1;" vertex="1" parent="1">
          <mxGeometry x="322" y="675" width="85" height="18" as="geometry" />
        </mxCell>
        <mxCell id="6fVhJkfkEPWEI2CCEgqG-19" value="商品" style="whiteSpace=wrap;html=1;" vertex="1" parent="1">
          <mxGeometry x="916" y="719" width="120" height="334" as="geometry" />
        </mxCell>
        <mxCell id="6fVhJkfkEPWEI2CCEgqG-23" value="PRC 接口查询上下柜 、flag、促销开始结束、plus价格" style="text;html=1;align=center;verticalAlign=middle;resizable=0;points=[];autosize=1;" vertex="1" parent="1">
          <mxGeometry x="530" y="910" width="299" height="18" as="geometry" />
        </mxCell>
        <mxCell id="6fVhJkfkEPWEI2CCEgqG-25" style="edgeStyle=orthogonalEdgeStyle;rounded=0;orthogonalLoop=1;jettySize=auto;html=1;entryX=-0.025;entryY=0.647;entryDx=0;entryDy=0;entryPerimeter=0;" edge="1" parent="1" target="6fVhJkfkEPWEI2CCEgqG-19">
          <mxGeometry relative="1" as="geometry">
            <mxPoint x="439" y="935" as="sourcePoint" />
          </mxGeometry>
        </mxCell>
        <mxCell id="6fVhJkfkEPWEI2CCEgqG-26" style="edgeStyle=orthogonalEdgeStyle;rounded=0;orthogonalLoop=1;jettySize=auto;html=1;exitX=1;exitY=0.25;exitDx=0;exitDy=0;entryX=0;entryY=0.25;entryDx=0;entryDy=0;" edge="1" parent="1" source="6fVhJkfkEPWEI2CCEgqG-24" target="6fVhJkfkEPWEI2CCEgqG-19">
          <mxGeometry relative="1" as="geometry" />
        </mxCell>
        <mxCell id="6fVhJkfkEPWEI2CCEgqG-27" value="RPC接口 更新精选标识" style="edgeLabel;html=1;align=center;verticalAlign=middle;resizable=0;points=[];" vertex="1" connectable="0" parent="6fVhJkfkEPWEI2CCEgqG-26">
          <mxGeometry x="0.1684" y="2" relative="1" as="geometry">
            <mxPoint y="1" as="offset" />
          </mxGeometry>
        </mxCell>
        <mxCell id="6fVhJkfkEPWEI2CCEgqG-24" value="精选" style="rounded=0;whiteSpace=wrap;html=1;" vertex="1" parent="1">
          <mxGeometry x="316" y="723" width="120" height="330" as="geometry" />
        </mxCell>
        <mxCell id="6fVhJkfkEPWEI2CCEgqG-28" style="edgeStyle=orthogonalEdgeStyle;rounded=0;orthogonalLoop=1;jettySize=auto;html=1;entryX=-0.025;entryY=0.647;entryDx=0;entryDy=0;entryPerimeter=0;" edge="1" parent="1">
          <mxGeometry relative="1" as="geometry">
            <mxPoint x="439" y="1013.9" as="sourcePoint" />
            <mxPoint x="913" y="1013.9979999999999" as="targetPoint" />
            <Array as="points">
              <mxPoint x="794" y="1014" />
              <mxPoint x="794" y="1014" />
            </Array>
          </mxGeometry>
        </mxCell>
        <mxCell id="6fVhJkfkEPWEI2CCEgqG-29" value="RPC 接口查询商品操作日志" style="edgeLabel;html=1;align=center;verticalAlign=middle;resizable=0;points=[];" vertex="1" connectable="0" parent="6fVhJkfkEPWEI2CCEgqG-28">
          <mxGeometry x="0.0886" y="3" relative="1" as="geometry">
            <mxPoint as="offset" />
          </mxGeometry>
        </mxCell>
        <mxCell id="6fVhJkfkEPWEI2CCEgqG-30" style="rounded=0;orthogonalLoop=1;jettySize=auto;html=1;exitX=1;exitY=0.25;exitDx=0;exitDy=0;entryX=0;entryY=0.25;entryDx=0;entryDy=0;" edge="1" parent="1">
          <mxGeometry relative="1" as="geometry">
            <mxPoint x="436" y="731" as="sourcePoint" />
            <mxPoint x="916" y="728" as="targetPoint" />
          </mxGeometry>
        </mxCell>
        <mxCell id="6fVhJkfkEPWEI2CCEgqG-32" value="保留扫表 到待选池" style="edgeLabel;html=1;align=center;verticalAlign=middle;resizable=0;points=[];" vertex="1" connectable="0" parent="6fVhJkfkEPWEI2CCEgqG-30">
          <mxGeometry x="-0.0626" y="-3" relative="1" as="geometry">
            <mxPoint as="offset" />
          </mxGeometry>
        </mxCell>
        <mxCell id="6fVhJkfkEPWEI2CCEgqG-33" value="" style="endArrow=classic;html=1;entryX=0;entryY=0.5;entryDx=0;entryDy=0;" edge="1" parent="1" target="6fVhJkfkEPWEI2CCEgqG-24">
          <mxGeometry width="50" height="50" relative="1" as="geometry">
            <mxPoint x="54" y="888" as="sourcePoint" />
            <mxPoint x="296" y="926" as="targetPoint" />
          </mxGeometry>
        </mxCell>
        <mxCell id="6fVhJkfkEPWEI2CCEgqG-34" value="&lt;span style=&quot;color: rgb(23 , 43 , 77) ; font-family: , , &amp;#34;segoe ui&amp;#34; , &amp;#34;roboto&amp;#34; , &amp;#34;oxygen&amp;#34; , &amp;#34;ubuntu&amp;#34; , &amp;#34;fira sans&amp;#34; , &amp;#34;droid sans&amp;#34; , &amp;#34;helvetica neue&amp;#34; , sans-serif ; font-size: 14px ; text-align: left&quot;&gt;商品类目变化MQ&lt;/span&gt;" style="edgeLabel;html=1;align=center;verticalAlign=middle;resizable=0;points=[];" vertex="1" connectable="0" parent="6fVhJkfkEPWEI2CCEgqG-33">
          <mxGeometry x="0.0076" y="-2" relative="1" as="geometry">
            <mxPoint as="offset" />
          </mxGeometry>
        </mxCell>
        <mxCell id="6fVhJkfkEPWEI2CCEgqG-37" style="edgeStyle=none;rounded=0;orthogonalLoop=1;jettySize=auto;html=1;exitX=1;exitY=0.5;exitDx=0;exitDy=0;" edge="1" parent="1" source="6fVhJkfkEPWEI2CCEgqG-8">
          <mxGeometry relative="1" as="geometry">
            <mxPoint x="633" y="191" as="sourcePoint" />
            <mxPoint x="917" y="189" as="targetPoint" />
          </mxGeometry>
        </mxCell>
        <mxCell id="6fVhJkfkEPWEI2CCEgqG-59" value="黑白名单 精选信息" style="edgeLabel;html=1;align=center;verticalAlign=middle;resizable=0;points=[];" vertex="1" connectable="0" parent="6fVhJkfkEPWEI2CCEgqG-37">
          <mxGeometry x="0.8892" relative="1" as="geometry">
            <mxPoint as="offset" />
          </mxGeometry>
        </mxCell>
        <mxCell id="6fVhJkfkEPWEI2CCEgqG-60" value="分类信息" style="edgeLabel;html=1;align=center;verticalAlign=middle;resizable=0;points=[];" vertex="1" connectable="0" parent="6fVhJkfkEPWEI2CCEgqG-37">
          <mxGeometry x="-0.1243" y="4" relative="1" as="geometry">
            <mxPoint as="offset" />
          </mxGeometry>
        </mxCell>
        <mxCell id="6fVhJkfkEPWEI2CCEgqG-38" style="edgeStyle=none;rounded=0;orthogonalLoop=1;jettySize=auto;html=1;exitX=1;exitY=0.5;exitDx=0;exitDy=0;" edge="1" parent="1" source="6fVhJkfkEPWEI2CCEgqG-9">
          <mxGeometry relative="1" as="geometry">
            <mxPoint x="635.5" y="259" as="sourcePoint" />
            <mxPoint x="913" y="346" as="targetPoint" />
          </mxGeometry>
        </mxCell>
        <mxCell id="6fVhJkfkEPWEI2CCEgqG-49" value="促销开始结束，价格，plus价格，flag" style="edgeLabel;html=1;align=center;verticalAlign=middle;resizable=0;points=[];" vertex="1" connectable="0" parent="6fVhJkfkEPWEI2CCEgqG-38">
          <mxGeometry x="-0.3611" y="-2" relative="1" as="geometry">
            <mxPoint x="32.1" y="-9.29" as="offset" />
          </mxGeometry>
        </mxCell>
        <mxCell id="6fVhJkfkEPWEI2CCEgqG-39" style="edgeStyle=none;rounded=0;orthogonalLoop=1;jettySize=auto;html=1;exitX=1;exitY=0.5;exitDx=0;exitDy=0;entryX=0;entryY=0.5;entryDx=0;entryDy=0;" edge="1" parent="1" source="6fVhJkfkEPWEI2CCEgqG-10" target="6fVhJkfkEPWEI2CCEgqG-5">
          <mxGeometry relative="1" as="geometry">
            <mxPoint x="633" y="327" as="sourcePoint" />
            <mxPoint x="954" y="335.2354570637119" as="targetPoint" />
          </mxGeometry>
        </mxCell>
        <mxCell id="6fVhJkfkEPWEI2CCEgqG-47" value="上下线" style="edgeLabel;html=1;align=center;verticalAlign=middle;resizable=0;points=[];" vertex="1" connectable="0" parent="6fVhJkfkEPWEI2CCEgqG-39">
          <mxGeometry x="-0.258" y="-1" relative="1" as="geometry">
            <mxPoint x="1" as="offset" />
          </mxGeometry>
        </mxCell>
        <mxCell id="6fVhJkfkEPWEI2CCEgqG-42" style="edgeStyle=none;rounded=0;orthogonalLoop=1;jettySize=auto;html=1;exitX=0;exitY=0.823;exitDx=0;exitDy=0;exitPerimeter=0;" edge="1" parent="1" source="6fVhJkfkEPWEI2CCEgqG-5">
          <mxGeometry relative="1" as="geometry">
            <mxPoint x="626" y="526" as="targetPoint" />
            <mxPoint x="930" y="385.25" as="sourcePoint" />
          </mxGeometry>
        </mxCell>
        <mxCell id="6fVhJkfkEPWEI2CCEgqG-54" value="精选操作及admin 查询" style="edgeLabel;html=1;align=center;verticalAlign=middle;resizable=0;points=[];" vertex="1" connectable="0" parent="6fVhJkfkEPWEI2CCEgqG-42">
          <mxGeometry x="-0.8987" y="-1" relative="1" as="geometry">
            <mxPoint as="offset" />
          </mxGeometry>
        </mxCell>
        <mxCell id="6fVhJkfkEPWEI2CCEgqG-45" value="&lt;div style=&quot;text-align: left&quot;&gt;&lt;font color=&quot;#172b4d&quot;&gt;&lt;span style=&quot;font-size: 14px ; background-color: rgb(255 , 255 , 255)&quot;&gt;更新精选标识&lt;/span&gt;&lt;/font&gt;&lt;/div&gt;" style="rounded=1;whiteSpace=wrap;html=1;" vertex="1" parent="1">
          <mxGeometry x="497" y="436" width="120" height="60" as="geometry" />
        </mxCell>
        <mxCell id="6fVhJkfkEPWEI2CCEgqG-46" value="&lt;div style=&quot;text-align: left&quot;&gt;&lt;span style=&quot;text-align: center&quot;&gt;更新及查询操作日志&lt;/span&gt;&lt;br&gt;&lt;/div&gt;" style="rounded=1;whiteSpace=wrap;html=1;" vertex="1" parent="1">
          <mxGeometry x="500.5" y="506" width="120" height="60" as="geometry" />
        </mxCell>
        <mxCell id="6fVhJkfkEPWEI2CCEgqG-51" value="扫描商品表" style="rounded=1;whiteSpace=wrap;html=1;" vertex="1" parent="1">
          <mxGeometry x="500.5" y="590" width="120" height="60" as="geometry" />
        </mxCell>
        <mxCell id="6fVhJkfkEPWEI2CCEgqG-52" style="edgeStyle=none;rounded=0;orthogonalLoop=1;jettySize=auto;html=1;" edge="1" parent="1">
          <mxGeometry relative="1" as="geometry">
            <mxPoint x="625" y="618" as="targetPoint" />
            <mxPoint x="919" y="526" as="sourcePoint" />
          </mxGeometry>
        </mxCell>
        <mxCell id="6fVhJkfkEPWEI2CCEgqG-53" value="待选池" style="edgeLabel;html=1;align=center;verticalAlign=middle;resizable=0;points=[];" vertex="1" connectable="0" parent="6fVhJkfkEPWEI2CCEgqG-52">
          <mxGeometry x="-0.9179" relative="1" as="geometry">
            <mxPoint as="offset" />
          </mxGeometry>
        </mxCell>
        <mxCell id="6fVhJkfkEPWEI2CCEgqG-57" value="导出 &lt;br&gt;后台查询&lt;br&gt;白名单 查询flag" style="text;html=1;strokeColor=none;fillColor=none;align=left;verticalAlign=middle;whiteSpace=wrap;rounded=0;" vertex="1" parent="1">
          <mxGeometry x="923" y="302" width="117" height="92" as="geometry" />
        </mxCell>
      </root>
    </mxGraphModel>
  </diagram>
</mxfile>
